<mxfile host="Electron" modified="2023-11-24T08:18:30.356Z" agent="Mozilla/5.0 (X11; Linux x86_64) AppleWebKit/537.36 (KHTML, like Gecko) draw.io/22.1.2 Chrome/114.0.5735.289 Electron/25.9.4 Safari/537.36" etag="Se1-IEqkvlM0-y6uiHGO" version="22.1.2" type="device">
  <diagram name="Page-1" id="Ov1hY7NAIhpf-3Ej8_Xz">
    <mxGraphModel dx="1197" dy="758" grid="1" gridSize="10" guides="1" tooltips="1" connect="1" arrows="1" fold="1" page="1" pageScale="1" pageWidth="850" pageHeight="1100" math="0" shadow="0">
      <root>
        <mxCell id="0" />
        <mxCell id="1" parent="0" />
        <mxCell id="OoE9c814yCv3j-LPLBNH-1" value="&lt;font style=&quot;font-size: 23px;&quot;&gt;Exec&lt;/font&gt;" style="rounded=1;whiteSpace=wrap;html=1;fillColor=#dae8fc;strokeColor=#6c8ebf;" vertex="1" parent="1">
          <mxGeometry x="100" y="120" width="140" height="70" as="geometry" />
        </mxCell>
        <mxCell id="OoE9c814yCv3j-LPLBNH-2" value="&lt;font style=&quot;font-size: 23px;&quot;&gt;Insn_cache&lt;/font&gt;" style="rounded=1;whiteSpace=wrap;html=1;fillColor=#dae8fc;strokeColor=#6c8ebf;" vertex="1" parent="1">
          <mxGeometry x="390" y="120" width="140" height="70" as="geometry" />
        </mxCell>
        <mxCell id="OoE9c814yCv3j-LPLBNH-3" value="" style="endArrow=classic;html=1;rounded=0;" edge="1" parent="1">
          <mxGeometry width="50" height="50" relative="1" as="geometry">
            <mxPoint x="310" y="260" as="sourcePoint" />
            <mxPoint x="310" y="520" as="targetPoint" />
          </mxGeometry>
        </mxCell>
        <mxCell id="OoE9c814yCv3j-LPLBNH-4" value="" style="rounded=0;whiteSpace=wrap;html=1;" vertex="1" parent="1">
          <mxGeometry x="360" y="272" width="90" height="60" as="geometry" />
        </mxCell>
        <mxCell id="OoE9c814yCv3j-LPLBNH-5" value="" style="endArrow=none;dashed=1;html=1;rounded=0;exitX=0;exitY=0.25;exitDx=0;exitDy=0;entryX=1;entryY=0.25;entryDx=0;entryDy=0;" edge="1" parent="1">
          <mxGeometry width="50" height="50" relative="1" as="geometry">
            <mxPoint x="360" y="286" as="sourcePoint" />
            <mxPoint x="450" y="286" as="targetPoint" />
          </mxGeometry>
        </mxCell>
        <mxCell id="OoE9c814yCv3j-LPLBNH-8" value="&lt;span style=&quot;font-size: 8px;&quot;&gt;Instruction&lt;/span&gt;" style="text;html=1;strokeColor=none;fillColor=none;align=center;verticalAlign=middle;whiteSpace=wrap;rounded=0;" vertex="1" parent="1">
          <mxGeometry x="375" y="262" width="60" height="30" as="geometry" />
        </mxCell>
        <mxCell id="OoE9c814yCv3j-LPLBNH-9" value="" style="endArrow=none;dashed=1;html=1;rounded=0;exitX=0;exitY=0.25;exitDx=0;exitDy=0;entryX=1;entryY=0.25;entryDx=0;entryDy=0;" edge="1" parent="1">
          <mxGeometry width="50" height="50" relative="1" as="geometry">
            <mxPoint x="360" y="301" as="sourcePoint" />
            <mxPoint x="450" y="301" as="targetPoint" />
          </mxGeometry>
        </mxCell>
        <mxCell id="OoE9c814yCv3j-LPLBNH-10" value="&lt;span style=&quot;font-size: 8px;&quot;&gt;Instruction&lt;/span&gt;" style="text;html=1;strokeColor=none;fillColor=none;align=center;verticalAlign=middle;whiteSpace=wrap;rounded=0;" vertex="1" parent="1">
          <mxGeometry x="375" y="277" width="60" height="30" as="geometry" />
        </mxCell>
        <mxCell id="OoE9c814yCv3j-LPLBNH-11" value="" style="endArrow=none;dashed=1;html=1;rounded=0;exitX=0;exitY=0.25;exitDx=0;exitDy=0;entryX=1;entryY=0.25;entryDx=0;entryDy=0;" edge="1" parent="1">
          <mxGeometry width="50" height="50" relative="1" as="geometry">
            <mxPoint x="361" y="316" as="sourcePoint" />
            <mxPoint x="451" y="316" as="targetPoint" />
          </mxGeometry>
        </mxCell>
        <mxCell id="OoE9c814yCv3j-LPLBNH-12" value="&lt;span style=&quot;font-size: 8px;&quot;&gt;Instruction&lt;/span&gt;" style="text;html=1;strokeColor=none;fillColor=none;align=center;verticalAlign=middle;whiteSpace=wrap;rounded=0;" vertex="1" parent="1">
          <mxGeometry x="376" y="292" width="60" height="30" as="geometry" />
        </mxCell>
        <mxCell id="OoE9c814yCv3j-LPLBNH-14" value="&lt;span style=&quot;font-size: 8px;&quot;&gt;Instruction&lt;/span&gt;" style="text;html=1;strokeColor=none;fillColor=none;align=center;verticalAlign=middle;whiteSpace=wrap;rounded=0;" vertex="1" parent="1">
          <mxGeometry x="375" y="306" width="60" height="30" as="geometry" />
        </mxCell>
        <mxCell id="OoE9c814yCv3j-LPLBNH-15" style="edgeStyle=orthogonalEdgeStyle;rounded=0;orthogonalLoop=1;jettySize=auto;html=1;exitX=0.5;exitY=1;exitDx=0;exitDy=0;" edge="1" parent="1" source="OoE9c814yCv3j-LPLBNH-4" target="OoE9c814yCv3j-LPLBNH-4">
          <mxGeometry relative="1" as="geometry" />
        </mxCell>
        <mxCell id="OoE9c814yCv3j-LPLBNH-17" value="" style="curved=1;endArrow=classic;html=1;rounded=0;entryX=-0.013;entryY=0.455;entryDx=0;entryDy=0;entryPerimeter=0;" edge="1" parent="1" target="OoE9c814yCv3j-LPLBNH-4">
          <mxGeometry width="50" height="50" relative="1" as="geometry">
            <mxPoint x="310" y="300" as="sourcePoint" />
            <mxPoint x="520" y="350" as="targetPoint" />
            <Array as="points">
              <mxPoint x="340" y="290" />
            </Array>
          </mxGeometry>
        </mxCell>
        <mxCell id="OoE9c814yCv3j-LPLBNH-19" value="" style="rounded=0;whiteSpace=wrap;html=1;" vertex="1" parent="1">
          <mxGeometry x="500" y="273" width="90" height="60" as="geometry" />
        </mxCell>
        <mxCell id="OoE9c814yCv3j-LPLBNH-20" value="" style="endArrow=none;dashed=1;html=1;rounded=0;exitX=0;exitY=0.25;exitDx=0;exitDy=0;entryX=1;entryY=0.25;entryDx=0;entryDy=0;" edge="1" parent="1">
          <mxGeometry width="50" height="50" relative="1" as="geometry">
            <mxPoint x="500" y="287" as="sourcePoint" />
            <mxPoint x="590" y="287" as="targetPoint" />
          </mxGeometry>
        </mxCell>
        <mxCell id="OoE9c814yCv3j-LPLBNH-21" value="&lt;span style=&quot;font-size: 8px;&quot;&gt;Instruction&lt;/span&gt;" style="text;html=1;strokeColor=none;fillColor=none;align=center;verticalAlign=middle;whiteSpace=wrap;rounded=0;" vertex="1" parent="1">
          <mxGeometry x="515" y="263" width="60" height="30" as="geometry" />
        </mxCell>
        <mxCell id="OoE9c814yCv3j-LPLBNH-22" value="" style="endArrow=none;dashed=1;html=1;rounded=0;exitX=0;exitY=0.25;exitDx=0;exitDy=0;entryX=1;entryY=0.25;entryDx=0;entryDy=0;" edge="1" parent="1">
          <mxGeometry width="50" height="50" relative="1" as="geometry">
            <mxPoint x="500" y="302" as="sourcePoint" />
            <mxPoint x="590" y="302" as="targetPoint" />
          </mxGeometry>
        </mxCell>
        <mxCell id="OoE9c814yCv3j-LPLBNH-23" value="&lt;span style=&quot;font-size: 8px;&quot;&gt;Instruction&lt;/span&gt;" style="text;html=1;strokeColor=none;fillColor=none;align=center;verticalAlign=middle;whiteSpace=wrap;rounded=0;" vertex="1" parent="1">
          <mxGeometry x="515" y="278" width="60" height="30" as="geometry" />
        </mxCell>
        <mxCell id="OoE9c814yCv3j-LPLBNH-24" value="" style="endArrow=none;dashed=1;html=1;rounded=0;exitX=0;exitY=0.25;exitDx=0;exitDy=0;entryX=1;entryY=0.25;entryDx=0;entryDy=0;" edge="1" parent="1">
          <mxGeometry width="50" height="50" relative="1" as="geometry">
            <mxPoint x="501" y="317" as="sourcePoint" />
            <mxPoint x="591" y="317" as="targetPoint" />
          </mxGeometry>
        </mxCell>
        <mxCell id="OoE9c814yCv3j-LPLBNH-25" value="&lt;span style=&quot;font-size: 8px;&quot;&gt;Instruction&lt;/span&gt;" style="text;html=1;strokeColor=none;fillColor=none;align=center;verticalAlign=middle;whiteSpace=wrap;rounded=0;" vertex="1" parent="1">
          <mxGeometry x="516" y="293" width="60" height="30" as="geometry" />
        </mxCell>
        <mxCell id="OoE9c814yCv3j-LPLBNH-26" value="&lt;span style=&quot;font-size: 8px;&quot;&gt;Instruction&lt;/span&gt;" style="text;html=1;strokeColor=none;fillColor=none;align=center;verticalAlign=middle;whiteSpace=wrap;rounded=0;" vertex="1" parent="1">
          <mxGeometry x="515" y="307" width="60" height="30" as="geometry" />
        </mxCell>
        <mxCell id="OoE9c814yCv3j-LPLBNH-27" style="edgeStyle=orthogonalEdgeStyle;rounded=0;orthogonalLoop=1;jettySize=auto;html=1;exitX=0.5;exitY=1;exitDx=0;exitDy=0;" edge="1" parent="1" source="OoE9c814yCv3j-LPLBNH-19" target="OoE9c814yCv3j-LPLBNH-19">
          <mxGeometry relative="1" as="geometry" />
        </mxCell>
        <mxCell id="OoE9c814yCv3j-LPLBNH-28" value="" style="curved=1;endArrow=classic;html=1;rounded=0;entryX=-0.013;entryY=0.455;entryDx=0;entryDy=0;entryPerimeter=0;" edge="1" parent="1" target="OoE9c814yCv3j-LPLBNH-19">
          <mxGeometry width="50" height="50" relative="1" as="geometry">
            <mxPoint x="450" y="301" as="sourcePoint" />
            <mxPoint x="660" y="351" as="targetPoint" />
            <Array as="points">
              <mxPoint x="480" y="291" />
            </Array>
          </mxGeometry>
        </mxCell>
        <mxCell id="OoE9c814yCv3j-LPLBNH-29" value="" style="rounded=0;whiteSpace=wrap;html=1;" vertex="1" parent="1">
          <mxGeometry x="360" y="347" width="90" height="60" as="geometry" />
        </mxCell>
        <mxCell id="OoE9c814yCv3j-LPLBNH-30" value="" style="endArrow=none;dashed=1;html=1;rounded=0;exitX=0;exitY=0.25;exitDx=0;exitDy=0;entryX=1;entryY=0.25;entryDx=0;entryDy=0;" edge="1" parent="1">
          <mxGeometry width="50" height="50" relative="1" as="geometry">
            <mxPoint x="360" y="361" as="sourcePoint" />
            <mxPoint x="450" y="361" as="targetPoint" />
          </mxGeometry>
        </mxCell>
        <mxCell id="OoE9c814yCv3j-LPLBNH-31" value="&lt;span style=&quot;font-size: 8px;&quot;&gt;Instruction&lt;/span&gt;" style="text;html=1;strokeColor=none;fillColor=none;align=center;verticalAlign=middle;whiteSpace=wrap;rounded=0;" vertex="1" parent="1">
          <mxGeometry x="375" y="337" width="60" height="30" as="geometry" />
        </mxCell>
        <mxCell id="OoE9c814yCv3j-LPLBNH-32" value="" style="endArrow=none;dashed=1;html=1;rounded=0;exitX=0;exitY=0.25;exitDx=0;exitDy=0;entryX=1;entryY=0.25;entryDx=0;entryDy=0;" edge="1" parent="1">
          <mxGeometry width="50" height="50" relative="1" as="geometry">
            <mxPoint x="360" y="376" as="sourcePoint" />
            <mxPoint x="450" y="376" as="targetPoint" />
          </mxGeometry>
        </mxCell>
        <mxCell id="OoE9c814yCv3j-LPLBNH-33" value="&lt;span style=&quot;font-size: 8px;&quot;&gt;Instruction&lt;/span&gt;" style="text;html=1;strokeColor=none;fillColor=none;align=center;verticalAlign=middle;whiteSpace=wrap;rounded=0;" vertex="1" parent="1">
          <mxGeometry x="375" y="352" width="60" height="30" as="geometry" />
        </mxCell>
        <mxCell id="OoE9c814yCv3j-LPLBNH-34" value="" style="endArrow=none;dashed=1;html=1;rounded=0;exitX=0;exitY=0.25;exitDx=0;exitDy=0;entryX=1;entryY=0.25;entryDx=0;entryDy=0;" edge="1" parent="1">
          <mxGeometry width="50" height="50" relative="1" as="geometry">
            <mxPoint x="361" y="391" as="sourcePoint" />
            <mxPoint x="451" y="391" as="targetPoint" />
          </mxGeometry>
        </mxCell>
        <mxCell id="OoE9c814yCv3j-LPLBNH-35" value="&lt;span style=&quot;font-size: 8px;&quot;&gt;Instruction&lt;/span&gt;" style="text;html=1;strokeColor=none;fillColor=none;align=center;verticalAlign=middle;whiteSpace=wrap;rounded=0;" vertex="1" parent="1">
          <mxGeometry x="376" y="367" width="60" height="30" as="geometry" />
        </mxCell>
        <mxCell id="OoE9c814yCv3j-LPLBNH-36" value="&lt;span style=&quot;font-size: 8px;&quot;&gt;Instruction&lt;/span&gt;" style="text;html=1;strokeColor=none;fillColor=none;align=center;verticalAlign=middle;whiteSpace=wrap;rounded=0;" vertex="1" parent="1">
          <mxGeometry x="375" y="381" width="60" height="30" as="geometry" />
        </mxCell>
        <mxCell id="OoE9c814yCv3j-LPLBNH-37" style="edgeStyle=orthogonalEdgeStyle;rounded=0;orthogonalLoop=1;jettySize=auto;html=1;exitX=0.5;exitY=1;exitDx=0;exitDy=0;" edge="1" parent="1" source="OoE9c814yCv3j-LPLBNH-29" target="OoE9c814yCv3j-LPLBNH-29">
          <mxGeometry relative="1" as="geometry" />
        </mxCell>
        <mxCell id="OoE9c814yCv3j-LPLBNH-38" value="" style="curved=1;endArrow=classic;html=1;rounded=0;entryX=-0.013;entryY=0.455;entryDx=0;entryDy=0;entryPerimeter=0;" edge="1" parent="1" target="OoE9c814yCv3j-LPLBNH-29">
          <mxGeometry width="50" height="50" relative="1" as="geometry">
            <mxPoint x="310" y="375" as="sourcePoint" />
            <mxPoint x="520" y="425" as="targetPoint" />
            <Array as="points">
              <mxPoint x="340" y="365" />
            </Array>
          </mxGeometry>
        </mxCell>
        <mxCell id="OoE9c814yCv3j-LPLBNH-39" value="" style="endArrow=none;dashed=1;html=1;rounded=0;" edge="1" parent="1">
          <mxGeometry width="50" height="50" relative="1" as="geometry">
            <mxPoint x="410" y="420" as="sourcePoint" />
            <mxPoint x="410" y="500" as="targetPoint" />
          </mxGeometry>
        </mxCell>
        <mxCell id="OoE9c814yCv3j-LPLBNH-40" value="Page index from PC" style="text;html=1;strokeColor=none;fillColor=none;align=center;verticalAlign=middle;whiteSpace=wrap;rounded=0;" vertex="1" parent="1">
          <mxGeometry x="220" y="480" width="80" height="30" as="geometry" />
        </mxCell>
        <mxCell id="OoE9c814yCv3j-LPLBNH-41" value="0x0000" style="text;html=1;strokeColor=none;fillColor=none;align=center;verticalAlign=middle;whiteSpace=wrap;rounded=0;" vertex="1" parent="1">
          <mxGeometry x="240" y="287" width="60" height="30" as="geometry" />
        </mxCell>
        <mxCell id="OoE9c814yCv3j-LPLBNH-42" value="0x0001" style="text;html=1;strokeColor=none;fillColor=none;align=center;verticalAlign=middle;whiteSpace=wrap;rounded=0;" vertex="1" parent="1">
          <mxGeometry x="240" y="362" width="60" height="30" as="geometry" />
        </mxCell>
        <mxCell id="OoE9c814yCv3j-LPLBNH-43" value="" style="curved=1;endArrow=classic;html=1;rounded=0;entryX=0.5;entryY=0;entryDx=0;entryDy=0;exitX=1;exitY=0.5;exitDx=0;exitDy=0;" edge="1" parent="1" source="OoE9c814yCv3j-LPLBNH-2" target="OoE9c814yCv3j-LPLBNH-19">
          <mxGeometry width="50" height="50" relative="1" as="geometry">
            <mxPoint x="320" y="310" as="sourcePoint" />
            <mxPoint x="369" y="309" as="targetPoint" />
            <Array as="points">
              <mxPoint x="620" y="160" />
            </Array>
          </mxGeometry>
        </mxCell>
        <mxCell id="OoE9c814yCv3j-LPLBNH-44" value="Current page" style="text;html=1;strokeColor=none;fillColor=none;align=center;verticalAlign=middle;whiteSpace=wrap;rounded=0;" vertex="1" parent="1">
          <mxGeometry x="580" y="190" width="60" height="30" as="geometry" />
        </mxCell>
        <mxCell id="OoE9c814yCv3j-LPLBNH-45" value="" style="shape=flexArrow;endArrow=classic;html=1;rounded=0;endWidth=9.523809523809524;endSize=6.557142857142857;fillColor=#e1d5e7;strokeColor=#9673a6;" edge="1" parent="1">
          <mxGeometry width="50" height="50" relative="1" as="geometry">
            <mxPoint x="440" y="200" as="sourcePoint" />
            <mxPoint x="440" y="250" as="targetPoint" />
          </mxGeometry>
        </mxCell>
        <mxCell id="OoE9c814yCv3j-LPLBNH-46" value="Get page from PC" style="text;html=1;strokeColor=none;fillColor=none;align=center;verticalAlign=middle;whiteSpace=wrap;rounded=0;" vertex="1" parent="1">
          <mxGeometry x="365" y="210" width="60" height="30" as="geometry" />
        </mxCell>
        <mxCell id="OoE9c814yCv3j-LPLBNH-47" value="" style="shape=flexArrow;endArrow=classic;html=1;rounded=0;endWidth=9.523809523809524;endSize=6.557142857142857;fillColor=#e1d5e7;strokeColor=#9673a6;" edge="1" parent="1">
          <mxGeometry width="50" height="50" relative="1" as="geometry">
            <mxPoint x="250" y="160" as="sourcePoint" />
            <mxPoint x="380" y="160" as="targetPoint" />
          </mxGeometry>
        </mxCell>
        <mxCell id="OoE9c814yCv3j-LPLBNH-48" value="Get instruction from PC" style="text;html=1;strokeColor=none;fillColor=none;align=center;verticalAlign=middle;whiteSpace=wrap;rounded=0;" vertex="1" parent="1">
          <mxGeometry x="260" y="120" width="90" height="30" as="geometry" />
        </mxCell>
      </root>
    </mxGraphModel>
  </diagram>
</mxfile>
